<?xml version="1.0" encoding="UTF-8" standalone="no"?>
<!-- Created with Inkscape (http://www.inkscape.org/) -->

<svg
   version="1.1"
   id="svg1"
   width="297mm"
   height="210mm"
   viewBox="0 0 1122.5197 793.70081"
   inkscape:version="1.3.2 (091e20e, 2023-11-25, custom)"
   sodipodi:docname="216.svg"
   xmlns:inkscape="http://www.inkscape.org/namespaces/inkscape"
   xmlns:sodipodi="http://sodipodi.sourceforge.net/DTD/sodipodi-0.dtd"
   xmlns="http://www.w3.org/2000/svg"
   xmlns:svg="http://www.w3.org/2000/svg">
  <sodipodi:namedview
     id="namedview1"
     pagecolor="#ffffff"
     bordercolor="#000000"
     borderopacity="0.25"
     inkscape:showpageshadow="2"
     inkscape:pageopacity="0.0"
     inkscape:pagecheckerboard="0"
     inkscape:deskcolor="#d1d1d1"
     inkscape:document-units="mm"
     inkscape:zoom="0.6639443"
     inkscape:cx="659.69389"
     inkscape:cy="396.87064"
     inkscape:window-width="1366"
     inkscape:window-height="697"
     inkscape:window-x="-8"
     inkscape:window-y="-8"
     inkscape:window-maximized="1"
     inkscape:current-layer="svg1" />
  <defs
     id="defs1">
    <marker
       style="overflow:visible"
       id="marker5"
       refX="0"
       refY="0"
       orient="auto-start-reverse"
       inkscape:stockid="Triangle arrow"
       markerWidth="1"
       markerHeight="1"
       viewBox="0 0 1 1"
       inkscape:isstock="true"
       inkscape:collect="always"
       preserveAspectRatio="xMidYMid">
      <path
         transform="scale(0.5)"
         style="fill:context-stroke;fill-rule:evenodd;stroke:context-stroke;stroke-width:1pt"
         d="M 5.77,0 -2.88,5 V -5 Z"
         id="path5" />
    </marker>
    <marker
       style="overflow:visible"
       id="Triangle"
       refX="0"
       refY="0"
       orient="auto-start-reverse"
       inkscape:stockid="Triangle arrow"
       markerWidth="1"
       markerHeight="1"
       viewBox="0 0 1 1"
       inkscape:isstock="true"
       inkscape:collect="always"
       preserveAspectRatio="xMidYMid">
      <path
         transform="scale(0.5)"
         style="fill:context-stroke;fill-rule:evenodd;stroke:context-stroke;stroke-width:1pt"
         d="M 5.77,0 -2.88,5 V -5 Z"
         id="path135" />
    </marker>
  </defs>
  <path
     style="fill:#afdde9;fill-opacity:0.663158;stroke:none;stroke-width:1.00157"
     id="circle4"
     sodipodi:type="arc"
     sodipodi:cx="501.61932"
     sodipodi:cy="386.59833"
     sodipodi:rx="167.20644"
     sodipodi:ry="167.20644"
     sodipodi:start="4.712389"
     sodipodi:end="5.4977871"
     sodipodi:arc-type="slice"
     d="m 501.61932,219.39189 a 167.20644,167.20644 0 0 1 118.2328,48.97363 l -118.2328,118.23281 z"
     inkscape:export-filename="circle216.pdf"
     inkscape:export-xdpi="300"
     inkscape:export-ydpi="300" />
  <circle
     style="fill:none;fill-opacity:0.663158;stroke:#000000;stroke-width:1.00157"
     id="path1"
     cx="501.61932"
     cy="386.59833"
     r="167.20644" />
  <path
     style="fill:#afdde9;fill-opacity:0.663158;stroke:#000000;stroke-width:1.00157;marker-end:url(#Triangle)"
     d="m 501.13094,386.59834 h 284.056"
     id="path2" />
  <path
     style="fill:#afdde9;fill-opacity:0.663158;stroke:#000000;stroke-width:1.00157;marker-end:url(#marker5)"
     d="M 501.61933,386.86457 V 102.81152"
     id="path3" />
  <path
     style="fill:#afdde9;fill-opacity:0.663158;stroke:#000000;stroke-width:1.00157;stroke-dasharray:4.00628, 4.00628;stroke-dashoffset:0"
     d="M 501.48752,386.73013 700.80771,187.40993"
     id="path4" />
  <g
     id="g8"
     transform="translate(27.69024,-11.182597)">
    <g
       fill="#000000"
       fill-opacity="1"
       id="g4"
       transform="matrix(1.33333,0,0,1.33333,724.49737,404.42339)">
      <g
         id="use3"
         transform="translate(1.993,9.4049997)">
        <path
           d="m 8.15625,-7.03125 c -0.546875,0.109375 -0.75,0.515625 -0.75,0.84375 0,0.421875 0.328125,0.5625 0.5625,0.5625 0.515625,0 0.875,-0.453125 0.875,-0.921875 0,-0.71875 -0.8125,-1.046875 -1.546875,-1.046875 -1.046875,0 -1.625,1.03125 -1.78125,1.359375 -0.40625,-1.296875 -1.46875,-1.359375 -1.78125,-1.359375 -1.75,0 -2.6875,2.25 -2.6875,2.640625 0,0.0625 0.078125,0.15625 0.1875,0.15625 0.140625,0 0.171875,-0.109375 0.21875,-0.171875 C 2.03125,-6.890625 3.1875,-7.25 3.6875,-7.25 c 0.765625,0 0.921875,0.71875 0.921875,1.140625 0,0.375 -0.09375,0.765625 -0.296875,1.59375 L 3.71875,-2.15625 c -0.25,1.03125 -0.75,1.984375 -1.671875,1.984375 -0.078125,0 -0.515625,0 -0.875,-0.21875 0.625,-0.125 0.75,-0.640625 0.75,-0.84375 0,-0.34375 -0.25,-0.5625 -0.578125,-0.5625 -0.40625,0 -0.859375,0.375 -0.859375,0.921875 0,0.71875 0.8125,1.046875 1.546875,1.046875 0.828125,0 1.40625,-0.65625 1.78125,-1.359375 0.265625,1.015625 1.125,1.359375 1.765625,1.359375 1.75,0 2.6875,-2.25 2.6875,-2.640625 0,-0.078125 -0.0625,-0.15625 -0.171875,-0.15625 -0.15625,0 -0.171875,0.09375 -0.21875,0.234375 -0.46875,1.515625 -1.46875,2.21875 -2.25,2.21875 -0.59375,0 -0.921875,-0.453125 -0.921875,-1.15625 0,-0.375 0.0625,-0.65625 0.34375,-1.78125 l 0.59375,-2.34375 C 5.90625,-6.484375 6.484375,-7.25 7.28125,-7.25 c 0.03125,0 0.515625,0 0.875,0.21875 z m 0,0"
           id="path7" />
      </g>
    </g>
    <g
       fill="#000000"
       fill-opacity="1"
       id="g5"
       transform="matrix(1.33333,0,0,1.33333,724.49737,404.42339)">
      <g
         id="use4"
         transform="translate(11.572,11.987)">
        <path
           d="m 3.203125,-6.984375 c 0,-0.25 0,-0.28125 -0.25,-0.28125 C 2.28125,-6.5625 1.3125,-6.5625 0.96875,-6.5625 v 0.328125 c 0.21875,0 0.859375,0 1.4375,-0.28125 v 5.65625 c 0,0.390625 -0.046875,0.515625 -1.015625,0.515625 H 1.03125 V 0 c 0.390625,-0.03125 1.328125,-0.03125 1.765625,-0.03125 0.4375,0 1.390625,0 1.765625,0.03125 V -0.34375 H 4.21875 c -0.984375,0 -1.015625,-0.109375 -1.015625,-0.515625 z m 0,0"
           id="path8" />
      </g>
    </g>
  </g>
  <g
     id="g9"
     transform="translate(-276.84888,-295.54006)">
    <g
       fill="#000000"
       fill-opacity="1"
       id="g6"
       transform="matrix(1.33333,0,0,1.33333,724.49737,404.42339)">
      <g
         id="use5"
         transform="translate(17.524,9.4049997)">
        <path
           d="m 8.15625,-7.03125 c -0.546875,0.109375 -0.75,0.515625 -0.75,0.84375 0,0.421875 0.328125,0.5625 0.5625,0.5625 0.515625,0 0.875,-0.453125 0.875,-0.921875 0,-0.71875 -0.8125,-1.046875 -1.546875,-1.046875 -1.046875,0 -1.625,1.03125 -1.78125,1.359375 -0.40625,-1.296875 -1.46875,-1.359375 -1.78125,-1.359375 -1.75,0 -2.6875,2.25 -2.6875,2.640625 0,0.0625 0.078125,0.15625 0.1875,0.15625 0.140625,0 0.171875,-0.109375 0.21875,-0.171875 C 2.03125,-6.890625 3.1875,-7.25 3.6875,-7.25 c 0.765625,0 0.921875,0.71875 0.921875,1.140625 0,0.375 -0.09375,0.765625 -0.296875,1.59375 L 3.71875,-2.15625 c -0.25,1.03125 -0.75,1.984375 -1.671875,1.984375 -0.078125,0 -0.515625,0 -0.875,-0.21875 0.625,-0.125 0.75,-0.640625 0.75,-0.84375 0,-0.34375 -0.25,-0.5625 -0.578125,-0.5625 -0.40625,0 -0.859375,0.375 -0.859375,0.921875 0,0.71875 0.8125,1.046875 1.546875,1.046875 0.828125,0 1.40625,-0.65625 1.78125,-1.359375 0.265625,1.015625 1.125,1.359375 1.765625,1.359375 1.75,0 2.6875,-2.25 2.6875,-2.640625 0,-0.078125 -0.0625,-0.15625 -0.171875,-0.15625 -0.15625,0 -0.171875,0.09375 -0.21875,0.234375 -0.46875,1.515625 -1.46875,2.21875 -2.25,2.21875 -0.59375,0 -0.921875,-0.453125 -0.921875,-1.15625 0,-0.375 0.0625,-0.65625 0.34375,-1.78125 l 0.59375,-2.34375 C 5.90625,-6.484375 6.484375,-7.25 7.28125,-7.25 c 0.03125,0 0.515625,0 0.875,0.21875 z m 0,0"
           id="path9" />
      </g>
    </g>
    <g
       fill="#000000"
       fill-opacity="1"
       id="g7"
       transform="matrix(1.33333,0,0,1.33333,724.49737,404.42339)">
      <g
         id="use6"
         transform="translate(27.103001,11.987)">
        <path
           d="m 1.390625,-0.84375 1.15625,-1.125 c 1.703125,-1.5 2.34375,-2.09375 2.34375,-3.171875 0,-1.25 -0.96875,-2.125 -2.3125,-2.125 -1.21875,0 -2.03125,1 -2.03125,1.96875 0,0.625 0.546875,0.625 0.578125,0.625 0.1875,0 0.5625,-0.140625 0.5625,-0.578125 0,-0.296875 -0.1875,-0.578125 -0.578125,-0.578125 -0.078125,0 -0.109375,0 -0.140625,0.015625 0.25,-0.703125 0.84375,-1.109375 1.46875,-1.109375 1,0 1.46875,0.875 1.46875,1.78125 0,0.859375 -0.546875,1.734375 -1.140625,2.40625 l -2.09375,2.328125 c -0.125,0.125 -0.125,0.140625 -0.125,0.40625 H 4.59375 L 4.890625,-1.890625 H 4.625 C 4.5625,-1.578125 4.5,-1.09375 4.390625,-0.921875 4.3125,-0.84375 3.59375,-0.84375 3.34375,-0.84375 Z m 0,0"
           id="path10" />
      </g>
    </g>
  </g>
</svg>
